<svg xmlns="http://www.w3.org/2000/svg" height="24px" viewBox="0 -960 960 960" width="24px" fill="#041627">
  <path d="M280-120q-33 0-56.5-23.5T200-200v-560q0-33 23.5-56.5T280-840h480q33 0 56.5 23.5T840-760v168q-21-4-41-4t-39 4v-168H280v560h400q20 0 39 4t41-4v-120q20 0 39 4t41-4v128q0 33-23.5 56.5T680-120H280Zm0-160v-80h280v80H280Zm0-160v-80h280v80H280Zm0-160v-80h280v80H280Zm440 240q-50 0-85-35t-35-85q0-50 35-85t85-35q50 0 85 35t35 85q0 50-35 85t-85 35Zm0-40q33 0 56.5-23.5T800-400q0-33-23.5-56.5T720-480q-33 0-56.5 23.5T640-400q0 33 23.5 56.5T720-360Z"/>
</svg>
